<svg width="160" height="86" viewBox="0 0 160 86" fill="none" xmlns="http://www.w3.org/2000/svg">
<rect x="1.5" y="1.5" width="157" height="61" stroke="#D9CD37" stroke-width="3"/>
<path d="M35.7069 41.6328L32.1678 37.5781L48.8787 20.3516L48.9256 20.2812L45.5506 20V15.875H59.5897V20L56.3787 20.6328L35.7069 41.6328ZM26.66 50V45.8984L30.2928 45.1953V20.7031L26.66 20V15.875H40.6053V20L37.1366 20.7031V45.1953L40.6053 45.8984V50H26.66ZM46.3006 50V45.8984L49.4881 45.6172H49.5116L40.8397 33.6641L45.3631 29.1406L57.4569 45.3125L60.8084 45.8984V50H46.3006ZM77.6328 50.4922C75.3672 50.4922 73.3984 50.0859 71.7266 49.2734C70.0547 48.4609 68.7578 47.3281 67.8359 45.875C66.9297 44.4219 66.4766 42.7344 66.4766 40.8125C66.4766 39.0469 66.9453 37.5156 67.8828 36.2188C68.8203 34.9062 70.2422 33.5703 72.1484 32.2109C72.2266 32.1484 72.3047 32.0859 72.3828 32.0234C72.4766 31.9609 72.5625 31.9062 72.6406 31.8594C71.5781 30.4219 70.7812 29.1094 70.25 27.9219C69.7344 26.7344 69.4766 25.5234 69.4766 24.2891C69.4766 22.4766 69.8594 20.9062 70.625 19.5781C71.3906 18.25 72.4688 17.2188 73.8594 16.4844C75.2656 15.75 76.9062 15.3828 78.7812 15.3828C80.4375 15.3828 81.8906 15.7422 83.1406 16.4609C84.4062 17.1641 85.3906 18.1094 86.0938 19.2969C86.8125 20.4844 87.1719 21.8125 87.1719 23.2812C87.1719 24.8125 86.7891 26.2109 86.0234 27.4766C85.2578 28.7422 84.2109 29.8516 82.8828 30.8047L80.7031 32.3516L87.1719 39.8984C87.7344 38.9609 88.1719 37.9453 88.4844 36.8516C88.7969 35.7578 88.9531 34.6016 88.9531 33.3828H94.0625C94.0625 35.5391 93.7969 37.5234 93.2656 39.3359C92.7344 41.1484 91.9219 42.7578 90.8281 44.1641L95.7031 49.8828L95.6562 50H88.0625L86.2578 47.9141C84.9297 48.7734 83.5625 49.4219 82.1562 49.8594C80.75 50.2812 79.2422 50.4922 77.6328 50.4922ZM77.9844 45.2422C78.8125 45.2422 79.6406 45.1406 80.4688 44.9375C81.2969 44.7188 82.0938 44.3984 82.8594 43.9766L75.8281 35.8203L75.3828 36.125C74.5859 36.875 74.0391 37.6094 73.7422 38.3281C73.4609 39.0312 73.3203 39.7422 73.3203 40.4609C73.3203 41.8516 73.75 43 74.6094 43.9062C75.4688 44.7969 76.5938 45.2422 77.9844 45.2422ZM77.6094 28.6484L79.625 27.3359C80.5 26.7734 81.0859 26.1953 81.3828 25.6016C81.6953 25.0078 81.8516 24.3594 81.8516 23.6562C81.8516 22.875 81.5625 22.1797 80.9844 21.5703C80.4219 20.9609 79.6797 20.6562 78.7578 20.6562C77.7422 20.6562 76.9609 21 76.4141 21.6875C75.8672 22.3594 75.5938 23.2031 75.5938 24.2188C75.5938 24.8906 75.7578 25.5859 76.0859 26.3047C76.4297 27.0078 76.9375 27.7891 77.6094 28.6484ZM100.176 50V45.8984L102.613 45.5469L113.465 15.875H120.473L131.254 45.5469L133.692 45.8984V50H122.067V45.8984L124.434 45.4766L122.934 40.7891H110.934L109.434 45.4766L111.801 45.8984V50H100.176ZM112.551 35.75H121.317L117.332 24.0547L117.004 23.0234H116.863L116.512 24.125L112.551 35.75Z" fill="#D9CD37"/>
<path d="M30.5944 83V81.6987L31.5529 81.4956V75.2686L30.5944 75.0654V73.7515H35.1393C35.8714 73.7515 36.5062 73.8678 37.0436 74.1006C37.5811 74.3333 37.9958 74.6655 38.2878 75.0972C38.5798 75.5246 38.7258 76.0324 38.7258 76.6206C38.7258 77.1623 38.5776 77.6659 38.2814 78.1313C37.9894 78.5968 37.5874 78.9714 37.0754 79.2549C36.5633 79.5342 35.9793 79.6717 35.3234 79.6675L33.7809 79.6484V81.4956L34.7394 81.6987V83H30.5944ZM36.447 83L35.2028 79.3945L37.1388 78.7344L38.2624 81.4829L39.1384 81.7051V83H36.447ZM33.7809 77.9409H35.1647C35.5964 77.9409 35.9286 77.8415 36.1613 77.6426C36.3941 77.4395 36.5104 77.1475 36.5104 76.7666C36.5104 76.373 36.3919 76.0578 36.155 75.8208C35.918 75.5796 35.5794 75.459 35.1393 75.459H33.7809V77.9409ZM40.6608 83V81.6987L41.6193 81.4956V75.2686L40.6608 75.0654V73.7578H48.0431V76.4238H46.361L46.3102 75.4717H43.8473V77.3696H46.799V79.0771H43.8473V81.2798H46.4308L46.4816 80.2832H48.1447V83H40.6608ZM54.0597 83.1333C53.3064 83.1333 52.6378 83.0614 52.0538 82.9175C51.4698 82.7736 50.888 82.5028 50.3082 82.105V79.7056H52.0284L52.2188 80.937C52.3543 81.0894 52.5934 81.2184 52.9361 81.3242C53.2789 81.4258 53.6534 81.4766 54.0597 81.4766C54.3432 81.4766 54.5802 81.4427 54.7706 81.375C54.961 81.3031 55.1049 81.1994 55.2022 81.064C55.2996 80.9285 55.3482 80.7656 55.3482 80.5752C55.3482 80.3932 55.3017 80.2303 55.2086 80.0864C55.1197 79.9425 54.9716 79.8071 54.7643 79.6802C54.5569 79.549 54.2776 79.4157 53.9264 79.2803C53.135 79.0264 52.4854 78.7682 51.9776 78.5059C51.4698 78.2435 51.0911 77.9325 50.8414 77.5728C50.596 77.2131 50.4732 76.7666 50.4732 76.2334C50.4732 75.7214 50.6192 75.2749 50.9112 74.894C51.2032 74.509 51.6052 74.2064 52.1173 73.9863C52.6293 73.7663 53.2154 73.6499 53.8756 73.6372C54.6288 73.6203 55.2953 73.6965 55.8751 73.8657C56.4548 74.0308 56.9669 74.2826 57.4112 74.6211V76.8491H55.7608L55.5006 75.6113C55.3567 75.5394 55.1515 75.4738 54.8849 75.4146C54.6183 75.3553 54.3347 75.3257 54.0343 75.3257C53.7761 75.3257 53.5455 75.3595 53.3424 75.4272C53.1435 75.495 52.9848 75.5965 52.8663 75.7319C52.7521 75.8674 52.6949 76.0366 52.6949 76.2397C52.6949 76.4048 52.7436 76.5529 52.8409 76.6841C52.9382 76.811 53.1096 76.9401 53.3551 77.0713C53.6005 77.1982 53.9433 77.3464 54.3834 77.5156C55.4329 77.8245 56.2285 78.2118 56.7701 78.6772C57.316 79.1385 57.589 79.7669 57.589 80.5625C57.589 81.1084 57.4409 81.5739 57.1446 81.959C56.8484 82.3398 56.4358 82.6318 55.9068 82.835C55.3779 83.0339 54.7621 83.1333 54.0597 83.1333ZM61.168 83V81.6987L62.1329 81.4956V75.4844H60.7046L60.6475 76.481H58.9654V73.7578H67.5538V76.481H65.8526L65.8018 75.4844H64.3609V81.4956L65.3257 81.6987V83H61.168ZM67.9209 83V81.6987L68.5684 81.6035L71.3233 73.7578H73.7354L76.4966 81.6035L77.1441 81.6987V83H73.6909V81.6987L74.294 81.5845L74.0147 80.5815H71.044L70.7774 81.5845L71.3804 81.6987V83H67.9209ZM71.5137 79.02H73.5386L72.6372 76.2207L72.5357 75.897H72.4976L72.3897 76.2524L71.5137 79.02ZM82.9638 83.1333C82.1683 83.1333 81.4743 83.0063 80.8818 82.7524C80.2936 82.4943 79.8387 82.1177 79.5171 81.6226C79.1955 81.1274 79.0346 80.5223 79.0346 79.8071V75.2686L78.0825 75.0654V73.7578H82.2212V75.0654L81.2627 75.2686V79.8071C81.2627 80.1795 81.3283 80.4884 81.4595 80.7339C81.5906 80.9751 81.7811 81.1549 82.0307 81.2734C82.2846 81.3919 82.5915 81.4512 82.9512 81.4512C83.3235 81.4512 83.6346 81.3919 83.8843 81.2734C84.1382 81.1549 84.3286 80.9751 84.4555 80.7339C84.5867 80.4884 84.6523 80.1795 84.6523 79.8071V75.2686L83.7002 75.0654V73.7578H87.8388V75.0654L86.8804 75.2686V79.8071C86.8804 80.5096 86.7153 81.1105 86.3852 81.6099C86.0552 82.105 85.596 82.4837 85.0078 82.7461C84.4238 83.0042 83.7425 83.1333 82.9638 83.1333ZM89.2534 83V81.6987L90.2119 81.4956V75.2686L89.2534 75.0654V73.7515H93.7983C94.5304 73.7515 95.1651 73.8678 95.7026 74.1006C96.24 74.3333 96.6547 74.6655 96.9467 75.0972C97.2387 75.5246 97.3847 76.0324 97.3847 76.6206C97.3847 77.1623 97.2366 77.6659 96.9404 78.1313C96.6484 78.5968 96.2464 78.9714 95.7343 79.2549C95.2223 79.5342 94.6383 79.6717 93.9824 79.6675L92.4399 79.6484V81.4956L93.3984 81.6987V83H89.2534ZM95.1059 83L93.8618 79.3945L95.7978 78.7344L96.9213 81.4829L97.7973 81.7051V83H95.1059ZM92.4399 77.9409H93.8237C94.2553 77.9409 94.5875 77.8415 94.8203 77.6426C95.053 77.4395 95.1694 77.1475 95.1694 76.7666C95.1694 76.373 95.0509 76.0578 94.8139 75.8208C94.5769 75.5796 94.2384 75.459 93.7983 75.459H92.4399V77.9409ZM99.2118 83V81.6987L99.8593 81.6035L102.614 73.7578H105.026L107.787 81.6035L108.435 81.6987V83H104.982V81.6987L105.585 81.5845L105.306 80.5815H102.335L102.068 81.5845L102.671 81.6987V83H99.2118ZM102.805 79.02H104.829L103.928 76.2207L103.827 75.897H103.788L103.681 76.2524L102.805 79.02ZM109.875 83V81.6987L110.827 81.4956V75.2686L109.875 75.0654V73.7578H110.827H113.093L116.8 79.6738H116.838V75.2686L115.626 75.0654V73.7578H118.812H119.771V75.0654L118.812 75.2686V83H116.616L112.839 77.2109H112.801V81.4956L114.02 81.6987V83H109.875ZM123.191 83V81.6987L124.156 81.4956V75.4844H122.728L122.671 76.481H120.989V73.7578H129.577V76.481H127.876L127.825 75.4844H126.384V81.4956L127.349 81.6987V83H123.191Z" fill="#D9CD37"/>
</svg>
